<svg height="512" viewBox="0 0 256 256" width="512" xmlns="http://www.w3.org/2000/svg"><rect fill="#63bce7" height="154.91" rx="14.009" width="224.78" x="15.61" y="36.313"/><path d="m25.11 177.214v-126.892a14.025 14.025 0 0 1 14.009-14.009h-9.5a14.025 14.025 0 0 0 -14.009 14.009v126.892a14.025 14.025 0 0 0 14.009 14.009h9.5a14.025 14.025 0 0 1 -14.009-14.009z" fill="#6377e7"/><path d="m230.89 177.214v-126.892a14.025 14.025 0 0 0 -14.009-14.009h9.5a14.025 14.025 0 0 1 14.009 14.009v126.892a14.025 14.025 0 0 1 -14.009 14.009h-9.5a14.025 14.025 0 0 0 14.009-14.009z" fill="#63e2e7"/><rect fill="#f8af23" height="125.366" rx="5.388" width="207.538" x="24.231" y="44.933"/><path d="m33.731 164.912v-114.591a5.4 5.4 0 0 1 5.388-5.388h-9.5a5.4 5.4 0 0 0 -5.388 5.388v114.59a5.4 5.4 0 0 0 5.388 5.388h9.5a5.4 5.4 0 0 1 -5.388-5.387z" fill="#f87023"/><path d="m222.269 164.912v-114.591a5.4 5.4 0 0 0 -5.388-5.388h9.5a5.4 5.4 0 0 1 5.388 5.388v114.59a5.4 5.4 0 0 1 -5.388 5.388h-9.5a5.4 5.4 0 0 0 5.388-5.387z" fill="#f8d323"/><path d="m88.847 213.938h78.305v9.429h-78.305z" fill="#f46275"/><path d="m88.847 213.938h9.5v9.429h-9.5z" fill="#f43075"/><path d="m99.983 191.222h56.035v22.716h-56.035z" fill="#9e9e9e"/><path d="m99.983 191.222h9.5v22.716h-9.5z" fill="#707070"/><circle cx="128" cy="180.761" fill="#f46275" r="4.613"/><path d="m71.708 21.66h112.583v148.64h-112.583z" fill="#f46275"/><path d="m89.549 105.076h76.903v8.691h-76.903z" fill="#63bce7"/><path d="m89.549 122.802h76.903v8.691h-76.903z" fill="#63bce7"/><path d="m89.549 140.528h76.903v8.691h-76.903z" fill="#63bce7"/><path d="m107.433 89.457a4.984 4.984 0 0 1 -3.536-1.465l-15.384-15.384a5 5 0 0 1 0-7.07l15.387-15.384a5 5 0 1 1 7.071 7.07l-11.851 11.849 11.849 11.85a5 5 0 0 1 -3.536 8.535z" fill="#f8af23"/><path d="m148.567 89.457a4.984 4.984 0 0 0 3.536-1.465l15.384-15.385a5 5 0 0 0 0-7.07l-15.387-15.383a5 5 0 1 0 -7.071 7.07l11.851 11.849-11.849 11.85a5 5 0 0 0 3.536 8.535z" fill="#f8af23"/><path d="m122.921 95.16a5 5 0 0 1 -4.872-6.144l10.167-43.333a5 5 0 1 1 9.735 2.285l-10.167 43.332a5 5 0 0 1 -4.863 3.86z" fill="#f8af23"/><g fill="#3f3679"><path d="m27.323 232.84h-18a1.5 1.5 0 1 0 0 3h18a1.5 1.5 0 1 0 0-3z"/><path d="m246.68 232.84h-18a1.5 1.5 0 0 0 0 3h18a1.5 1.5 0 0 0 0-3z"/><path d="m218.479 232.84h-180.958a1.5 1.5 0 0 0 0 3h180.958a1.5 1.5 0 0 0 0-3z"/><path d="m9.32 224.867h237.36a1.5 1.5 0 1 0 0-3h-78.027v-7.929a1.5 1.5 0 0 0 -1.5-1.5h-9.635v-19.715h68.864a15.526 15.526 0 0 0 15.508-15.509v-126.893a15.526 15.526 0 0 0 -15.508-15.509h-40.59v-13.152a1.5 1.5 0 0 0 -1.5-1.5h-112.584a1.5 1.5 0 0 0 -1.5 1.5v13.153h-40.589a15.526 15.526 0 0 0 -15.509 15.508v126.893a15.526 15.526 0 0 0 15.508 15.509h68.864v19.716h-9.635a1.5 1.5 0 0 0 -1.5 1.5v7.929h-78.027a1.5 1.5 0 1 0 0 3zm176.472-178.433h40.589a3.892 3.892 0 0 1 3.888 3.888v114.59a3.892 3.892 0 0 1 -3.888 3.888h-40.589zm-112.584-23.274h109.584v145.64h-109.584zm-43.589 145.64a3.892 3.892 0 0 1 -3.888-3.888v-114.591a3.892 3.892 0 0 1 3.888-3.888h40.589v122.367zm-12.509 8.414v-126.893a12.523 12.523 0 0 1 12.509-12.508h40.59v5.621h-40.59a6.9 6.9 0 0 0 -6.888 6.888v114.59a6.9 6.9 0 0 0 6.888 6.888h196.762a6.9 6.9 0 0 0 6.888-6.888v-114.591a6.9 6.9 0 0 0 -6.888-6.888h-40.589v-5.62h40.59a12.523 12.523 0 0 1 12.508 12.508v126.893a12.523 12.523 0 0 1 -12.508 12.509h-196.763a12.523 12.523 0 0 1 -12.509-12.509zm84.372 15.509h53.035v19.716h-53.035zm-11.135 22.715h75.306v6.429h-75.306z"/><path d="m128 186.874a6.113 6.113 0 1 0 -6.113-6.113 6.12 6.12 0 0 0 6.113 6.113zm0-9.227a3.113 3.113 0 1 1 -3.113 3.113 3.117 3.117 0 0 1 3.113-3.113z"/><path d="m166.451 103.576h-76.9a1.5 1.5 0 0 0 -1.5 1.5v8.691a1.5 1.5 0 0 0 1.5 1.5h76.9a1.5 1.5 0 0 0 1.5-1.5v-8.691a1.5 1.5 0 0 0 -1.5-1.5zm-1.5 8.691h-73.9v-5.691h73.9z"/><path d="m166.451 121.3h-76.9a1.5 1.5 0 0 0 -1.5 1.5v8.691a1.5 1.5 0 0 0 1.5 1.5h76.9a1.5 1.5 0 0 0 1.5-1.5v-8.691a1.5 1.5 0 0 0 -1.5-1.5zm-1.5 8.691h-73.9v-5.691h73.9z"/><path d="m166.451 139.027h-76.9a1.5 1.5 0 0 0 -1.5 1.5v8.691a1.5 1.5 0 0 0 1.5 1.5h76.9a1.5 1.5 0 0 0 1.5-1.5v-8.691a1.5 1.5 0 0 0 -1.5-1.5zm-1.5 8.691h-73.9v-5.691h73.9z"/><path d="m107.433 90.957a6.5 6.5 0 0 0 4.6-11.1l-10.792-10.785 10.788-10.788a6.5 6.5 0 1 0 -9.192-9.191l-15.384 15.384a6.5 6.5 0 0 0 0 9.191l15.384 15.385a6.456 6.456 0 0 0 4.596 1.904zm-18.884-21.885a3.477 3.477 0 0 1 1.025-2.472l15.384-15.384a3.5 3.5 0 1 1 4.95 4.949l-11.849 11.847a1.5 1.5 0 0 0 0 2.121l11.849 11.85a3.5 3.5 0 0 1 0 4.949 3.585 3.585 0 0 1 -4.951 0l-15.383-15.385a3.477 3.477 0 0 1 -1.025-2.475z"/><path d="m153.164 49.093a6.5 6.5 0 1 0 -9.192 9.191l10.788 10.788-10.789 10.789a6.5 6.5 0 1 0 9.192 9.191l15.384-15.385a6.5 6.5 0 0 0 0-9.191zm13.263 22.454-15.385 15.385a3.586 3.586 0 0 1 -4.95 0 3.5 3.5 0 0 1 0-4.95l11.849-11.85a1.5 1.5 0 0 0 0-2.121l-11.849-11.848a3.5 3.5 0 0 1 4.95-4.949l15.384 15.386a3.5 3.5 0 0 1 0 4.949z"/><path d="m121.433 96.488a6.544 6.544 0 0 0 1.488.172 6.472 6.472 0 0 0 6.324-5.016l10.167-43.333a6.5 6.5 0 0 0 -12.656-2.971l-10.168 43.334a6.509 6.509 0 0 0 4.845 7.814zm-1.924-7.129 10.167-43.333a3.5 3.5 0 1 1 6.814 1.6l-10.166 43.333a3.483 3.483 0 0 1 -3.4 2.7 3.546 3.546 0 0 1 -.8-.093 3.505 3.505 0 0 1 -2.615-4.207z"/></g></svg>