<svg height="512" viewBox="0 0 58 58" width="512" xmlns="http://www.w3.org/2000/svg"><g id="Page-1" fill="none" fill-rule="evenodd"><g id="001---Mobile-Maps" fill-rule="nonzero"><path id="Shape" d="m28 0h-24c-2.209139 0-4 1.790861-4 4v50c0 2.209139 1.790861 4 4 4h24c1.1086602-.0035665 2.1661129-.4671074 2.92-1.28.2588092-.2723915.4746176-.582616.64-.92.0037443-.0365711.0037443-.0734289 0-.11.2751924-.5218018.425794-1.1002491.44-1.69v-50c0-1.06086596-.4214274-2.07828161-1.1715729-2.82842712-.7501455-.75014552-1.7675611-1.17157288-2.8284271-1.17157288z" fill="#f29c1f"/><path id="Shape" d="m45 37h-13c-.5522847 0-1-.4477153-1-1s.4477153-1 1-1h13c.5522847 0 1-.4477153 1-1v-5.5c0-.5522847.4477153-1 1-1s1 .4477153 1 1v5.5c0 1.6568542-1.3431458 3-3 3z" fill="#95a5a5"/><path id="Shape" d="m31.61 55.69c.0037443.0365711.0037443.0734289 0 .11-.1653824.337384-.3811908.6476085-.64.92-.7656912.8257055-1.8439609 1.2904143-2.97 1.28h-24c-2.209139 0-4-1.790861-4-4v-3.11l13.41-13.4z" fill="#95a5a5"/><path id="Shape" d="m3.36 34.22c-.87623791 3.2184024-1.57066906 6.4835642-2.08 9.78l-1.28 1.23v-7.65z" fill="#4482c3"/><path id="Shape" d="m9.16 36.07-7.88 7.93c.51116824-3.2796163 1.20558866-6.5280349 2.08-9.73l2-2 1 1z" fill="#285680"/><path id="Shape" d="m4.26 31.18c-.33 1-.63 2-.9 3l-3.36 3.4v-10.67l3.51 3.51z" fill="#3b97d3"/><path id="Shape" d="m5.33 32.25-2 2c.27-1 .57-2 .9-3z" fill="#2980ba"/><path id="Shape" d="m9.51 19.45c-1.47664507 2.3975866-2.7318307 4.9246937-3.75 7.55l-5.76-5.74v-11.32z" fill="#4fba6f"/><path id="Shape" d="m17.65 27.59-5.65 5.66-6.24-6.25c1.01706043-2.6321798 2.27226821-5.1660259 3.75-7.57z" fill="#24ae5f"/><path id="Shape" d="m32 6v7.23l-11.52 11.53-8.66-8.66c4.66-5.95 11.18-10.1 20.18-10.1z" fill="#e57e25"/><path id="Shape" d="m27 0-1.89 3.79c-.6782569 1.35542955-2.0643415 2.21108512-3.58 2.21h-11.06c-1.51565846.00108512-2.90174305-.85457045-3.58-2.21l-1.89-3.79z" fill="#393f4a"/><path id="Shape" d="m32 18.89v11.74l-5.87-5.87z" fill="#e57e25"/><path id="Shape" d="m32 36.28v14.15l-15.77-15.77 7.08-7.07z" fill="#95a5a5"/><path id="Shape" d="m58 11c0 11.41-11 19-11 19s-11-7.59-11-19c0-6.07513225 4.9248678-11 11-11s11 4.92486775 11 11z" fill="#e64c3c"/><circle id="Oval" cx="47" cy="10" fill="#f5efca" r="6"/><path id="Shape" d="m11.82 16.1c-.8356944 1.0699116-1.6070546 2.188551-2.31 3.35l-9.51-9.51v-5.66z" fill="#f3d55b"/><path id="Shape" d="m5.76 27c-.56 1.37-1 2.76-1.5 4.16l-.75-.76-3.51-3.49v-5.65z" fill="#f3d55b"/><path id="Shape" d="m32 18.89-5.87 5.87 5.87 5.87v5.65l-8.69-8.69-7.08 7.07 15.77 15.77v3.57c.0012979.5857846-.1321412 1.1640208-.39 1.69l-18.2-18.2-2.06 2.06-10.91 10.9-.44.44v-5.66l1.28-1.23 7.88-7.88-2.83-2.87-2.07-2.07c.45-1.4.94-2.79 1.5-4.16l6.24 6.23 5.66-5.66-8.14-8.14c.7029454-1.161449 1.4743056-2.2800884 2.31-3.35l8.64 8.64 11.5300094-11.51z" fill="#f0c419"/><path id="Shape" d="m11 54 5-8 5 8-5-2z" fill="#4482c3"/><path id="Shape" d="m47 17c-3.8659932 0-7-3.1340068-7-7 0-3.86599325 3.1340068-7 7-7s7 3.13400675 7 7c0 1.8565154-.7374979 3.6369928-2.0502525 4.9497475-1.3127547 1.3127546-3.0932321 2.0502525-4.9497475 2.0502525zm0-12c-2.7614237 0-5 2.23857625-5 5 0 2.7614237 2.2385763 5 5 5s5-2.2385763 5-5c0-1.32608245-.5267842-2.59785201-1.4644661-3.53553391-.9376819-.93768189-2.2094515-1.46446609-3.5355339-1.46446609z" fill="#c03a2b"/></g></g></svg>