<svg height="512" viewBox="0 0 128 128" width="512" xmlns="http://www.w3.org/2000/svg"><path d="m86.768 68.853c8.447-6.095 12.732-13.045 12.732-20.753 0-17.629-16.245-40.368-33.5-40.368s-33.5 22.739-33.5 40.368c0 9.241 6.437 16.219 12.636 20.8a30.107 30.107 0 0 0 -18.323 27.667v11.963a8.96 8.96 0 0 0 2.487 6.21l4.866 5.1c0 .071-.021.138-.021.21a4.219 4.219 0 0 0 4.215 4.215h55.28a4.219 4.219 0 0 0 4.215-4.215c0-.072-.017-.139-.021-.21l4.866-5.1a8.959 8.959 0 0 0 2.486-6.21v-11.963a30.107 30.107 0 0 0 -18.418-27.714z" fill="#e6e7e8"/><path d="m80.685 65.123c6.573-4.433 13.815-11.423 13.815-21.023 0-16.976-15.53-39.368-32.5-39.368s-32.5 22.392-32.5 39.368c0 9.52 7.329 16.633 13.765 21.045a29.067 29.067 0 0 0 -19.451 27.423v11.962a8 8 0 0 0 2.21 5.52l5.178 5.431a3.211 3.211 0 0 1 3.158-2.643h55.28a3.211 3.211 0 0 1 3.158 2.643l5.178-5.431a8 8 0 0 0 2.21-5.52v-11.962a29.068 29.068 0 0 0 -19.501-27.445z" fill="#0089ef"/><path d="m62 64.107a22.539 22.539 0 0 1 -8.872-1.807v.269c0 4.9 8.872 10.872 8.872 10.872s8.872-5.972 8.872-10.872v-.269a22.543 22.543 0 0 1 -8.872 1.807z" fill="#fff"/><path d="m62 28.732c-8.238 0-16.171 3.976-22.608 9.832v2.936a22.608 22.608 0 1 0 45.216 0v-2.937c-6.438-5.856-14.37-9.831-22.608-9.831z" fill="#fff"/><path d="m62 28.732c12.772 0 24.832 9.528 31.679 20.862a18.814 18.814 0 0 0 .821-5.5c0-16.97-15.53-39.362-32.5-39.362s-32.5 22.392-32.5 39.368a18.466 18.466 0 0 0 .842 5.466c6.85-11.325 18.899-20.834 31.658-20.834z" fill="#6dc9f7"/><rect fill="#fa759e" height="39.399" rx="3.215" width="61.71" x="31.145" y="73.439"/><path d="m89.64 73.439h-55.28a3.214 3.214 0 0 0 -3.215 3.215v3a3.214 3.214 0 0 1 3.215-3.215h55.28a3.214 3.214 0 0 1 3.215 3.215v-3a3.214 3.214 0 0 0 -3.215-3.215z" fill="#fff"/><rect fill="#ffd7e5" height="6.43" rx="3.215" width="61.71" x="31.145" y="112.838"/><path d="m69.029 85.189a12.526 12.526 0 0 0 -14.058 0 8.419 8.419 0 0 0 -3.192 9.048c.483 1.638 2.954 2.763 2.954 2.763s-1.68.659-1.116 2.1 2.7 1.3 2.7 1.3-1.446 3.554.255 4.161 2.194-1.369 2.194-1.369-.336 1.821 1.255 2c1.042.108 1.791-1.492 1.979-2.192.188.707.937 2.307 1.977 2.191 1.592-.177 1.256-2 1.256-2s.493 1.975 2.194 1.369.254-4.161.254-4.161 2.139.147 2.7-1.3-1.114-2.099-1.114-2.099 2.471-1.121 2.954-2.759a8.419 8.419 0 0 0 -3.192-9.052zm-13.2 8.249c-.944-.9.3-3.026.875-3.192.873-.252 2.734 1.592 3.777 2.729a.563.563 0 0 1 -.374.945c-1.388.089-3.64.129-4.28-.482zm7.289 6.408h-2.234a.656.656 0 0 1 -.581-.963l1.116-2.113a.657.657 0 0 1 1.162 0l1.119 2.113a.656.656 0 0 1 -.584.963zm5.057-6.408c-.64.611-2.892.571-4.278.482a.563.563 0 0 1 -.374-.945c1.043-1.137 2.9-2.981 3.776-2.729.576.166 1.818 2.29.874 3.192z" fill="#fff"/><path d="m82.744 64.871c8.463-6.1 12.756-13.056 12.756-20.771 0-17.629-16.245-40.368-33.5-40.368s-33.5 22.739-33.5 40.368c0 9.253 6.454 16.238 12.661 20.817a30.082 30.082 0 0 0 -18.347 27.65v11.963a8.965 8.965 0 0 0 2.486 6.211l4.866 5.1c0 .071-.021.138-.021.21a4.22 4.22 0 0 0 4.215 4.215h55.28a4.22 4.22 0 0 0 4.215-4.215c0-.072-.018-.139-.021-.21l4.866-5.1a8.966 8.966 0 0 0 2.487-6.211v-11.963a30.086 30.086 0 0 0 -18.443-27.696zm-11.776 4.529-.188.089a1 1 0 1 0 .859 1.807l.186-.089a74.166 74.166 0 0 0 8.93-4.969 28.119 28.119 0 0 1 10.1 6.4 4.171 4.171 0 0 0 -1.214-.2h-24.633c2.688-2.175 6.569-5.911 6.834-9.49a23.636 23.636 0 0 0 13.766-21.448v-.62a48.886 48.886 0 0 1 6.979 8.863c-2.411 7.383-9.645 13.976-21.619 19.657zm-21.868-20.934a11.256 11.256 0 0 0 7.337-.063l3.452-1.225a6.331 6.331 0 0 1 4.23 0l3.448 1.222a11.256 11.256 0 0 0 7.337.063l8.296-2.779a21.607 21.607 0 0 1 -42.4 0zm-7.9-10.191c6.372-5.4 13.757-8.543 20.805-8.543s14.437 3.147 20.81 8.545l-8.362-2.4a11.255 11.255 0 0 0 -6.426.069l-4.15 1.285a6.322 6.322 0 0 1 -3.744 0l-4.156-1.281a11.252 11.252 0 0 0 -6.425-.069zm20.8 26.832a23.489 23.489 0 0 0 7.649-1.279c-1.022 3.108-5.343 6.738-7.649 8.392-2.308-1.653-6.629-5.28-7.65-8.392a23.522 23.522 0 0 0 7.65 1.279zm0-59.375c16.225 0 31.5 21.612 31.5 38.363a18.137 18.137 0 0 1 -.262 2.961c-7.898-11.806-19.938-19.324-31.238-19.324s-23.343 7.523-31.241 19.332a17.229 17.229 0 0 1 -.259-2.964c0-16.756 15.275-38.368 31.5-38.368zm-18.883 60.551a55.343 55.343 0 0 0 9.3 5.036 1 1 0 0 0 .744-1.857c-.2-.079-17.482-7.159-21.727-19.755a48.857 48.857 0 0 1 6.956-8.825v.618a23.636 23.636 0 0 0 13.768 21.449c.265 3.579 4.146 7.315 6.834 9.49h-24.632a4.145 4.145 0 0 0 -1.215.2 28.13 28.13 0 0 1 9.972-6.356zm-16.369 43.078a6.974 6.974 0 0 1 -1.934-4.831v-11.963a27.887 27.887 0 0 1 5.39-16.5 4.242 4.242 0 0 0 -.059.59v32.969a4.171 4.171 0 0 0 1.522 3.215 4.208 4.208 0 0 0 -.793.85zm62.892 8.907h-55.28a2.215 2.215 0 1 1 0-4.43h55.28a2.215 2.215 0 0 1 0 4.43zm9.547-13.738a6.97 6.97 0 0 1 -1.935 4.831l-4.126 4.327a4.236 4.236 0 0 0 -.793-.85 4.174 4.174 0 0 0 1.522-3.215v-4.1a1 1 0 0 0 -2 0v4.1a2.218 2.218 0 0 1 -2.215 2.215h-55.28a2.217 2.217 0 0 1 -2.215-2.215v-32.969a2.217 2.217 0 0 1 2.215-2.215h55.28a2.218 2.218 0 0 1 2.215 2.215v15.485a1 1 0 0 0 2 0v-15.485a4.1 4.1 0 0 0 -.06-.59 27.891 27.891 0 0 1 5.392 16.5z" fill="#3a2c60"/><path d="m92.855 94.9a1 1 0 0 0 -1 1v6a1 1 0 0 0 2 0v-6a1 1 0 0 0 -1-1z" fill="#3a2c60"/><g fill="#fff"><path d="m52.419 39.915c-2.431 0-4.4 2.244-4.4 2.244s1.97 2.245 4.4 2.245 4.4-2.245 4.4-2.245-1.97-2.244-4.4-2.244z"/><path d="m71.581 39.915c-2.43 0-4.4 2.244-4.4 2.244s1.97 2.245 4.4 2.245 4.4-2.245 4.4-2.245-1.97-2.244-4.4-2.244z"/></g></svg>